<svg xmlns="http://www.w3.org/2000/svg" width="196.996" height="44.946" viewBox="0 0 196.996 44.946">
  <g id="Group_1" data-name="Group 1" transform="translate(0 0)">
    <path id="Path_1" data-name="Path 1" d="M399.16,722.911l.6-2.346a8.623,8.623,0,0,1-6.605,3.505c-3.691,0-6.416-2.785-6.416-6.728,0-5.666,4.258-10.017,9.015-10.017A6.437,6.437,0,0,1,402.1,711.8l2.787-10.391a.833.833,0,0,1,.844-.719.642.642,0,0,1,.626.874l-5.727,21.505a.837.837,0,0,1-.847.717.644.644,0,0,1-.626-.876m2.16-8.575a5.4,5.4,0,0,0-5.51-5.57c-4.32,0-7.415,3.973-7.415,8.386,0,3.287,2.032,5.479,4.944,5.479,3.974,0,7.982-4.039,7.982-8.3" transform="translate(-386.735 -689.718)" fill="#47545d"/>
    <path id="Path_2" data-name="Path 2" d="M402.736,722.621a.832.832,0,0,1-.843.719.641.641,0,0,1-.626-.875l3.912-14.618a.832.832,0,0,1,.843-.717.64.64,0,0,1,.626.874Zm4.146-17.982c-.563,0-.938-.377-.814-.877l.079-.268a1.007,1.007,0,0,1,1.064-.721c.564,0,.939.375.815.876l-.08.272a1.006,1.006,0,0,1-1.064.718" transform="translate(-383.616 -689.27)" fill="#47545d"/>
    <path id="Path_3" data-name="Path 3" d="M409.976,711.042c1.94-2.88,5.279-4.789,7.72-4.789a.734.734,0,0,1,.814.781c0,.533-.377.876-1.126.942a10.509,10.509,0,0,0-8.723,7.95l-1.6,5.944a.839.839,0,0,1-.846.721.646.646,0,0,1-.628-.876l3.883-14.616a.837.837,0,0,1,.843-.721.645.645,0,0,1,.628.877Z" transform="translate(-382.686 -688.521)" fill="#47545d"/>
    <path id="Path_4" data-name="Path 4" d="M426.472,719.61a.965.965,0,0,1,.593-.22.642.642,0,0,1,.659.656.817.817,0,0,1-.315.627,8.88,8.88,0,0,1-5.976,2.192c-4.073,0-6.95-2.757-6.95-6.7,0-4.979,4.036-10.018,9.234-10.018,4.006,0,6.039,2.817,6.039,6.1a10.354,10.354,0,0,1-.219,2.063.876.876,0,0,1-.938.722H416.206c-.032.345-.063.718-.063,1.063a5.018,5.018,0,0,0,5.29,5.32,7.567,7.567,0,0,0,5.039-1.813m1.6-5.948a6.281,6.281,0,0,0,.124-1.313c0-2.569-1.406-4.789-4.509-4.789-3.565,0-6.289,2.817-7.2,6.1Z" transform="translate(-380.768 -688.544)" fill="#47545d"/>
    <path id="Path_5" data-name="Path 5" d="M435.159,722.865a6.756,6.756,0,0,1-6.948-6.886c0-5.227,4.35-9.829,9.389-9.829a6.727,6.727,0,0,1,5.885,3.162,1.153,1.153,0,0,1,.219.626.693.693,0,0,1-.689.688.842.842,0,0,1-.75-.407,5.3,5.3,0,0,0-4.758-2.629c-4.068,0-7.635,3.915-7.635,8.3a5.246,5.246,0,0,0,5.383,5.539,7.2,7.2,0,0,0,4.787-1.942.882.882,0,0,1,.6-.219.669.669,0,0,1,.657.689.775.775,0,0,1-.282.594,8.712,8.712,0,0,1-5.853,2.317" transform="translate(-377.815 -688.544)" fill="#47545d"/>
    <path id="Path_6" data-name="Path 6" d="M445.459,702.878a.835.835,0,0,1,.843-.718.643.643,0,0,1,.627.875l-1.158,4.351h4.7a.707.707,0,0,1,.717.718.72.72,0,0,1-.717.689H445.4l-2.723,10.172a6.764,6.764,0,0,0-.156,1.346c0,1.313,1,1.908,2.6,1.908a4.541,4.541,0,0,0,1.282-.188c.627-.186.971.095.971.566,0,.343-.22.563-.626.717a5.869,5.869,0,0,1-1.972.315c-2.129,0-3.819-.97-3.819-3.163a7.676,7.676,0,0,1,.188-1.533l2.725-10.14h-1.5a.708.708,0,0,1-.722-.718.723.723,0,0,1,.722-.689h1.876Z" transform="translate(-375.075 -689.402)" fill="#47545d"/>
    <path id="Path_7" data-name="Path 7" d="M457.484,718.014c0-.814-.752-1.378-2.411-2.067-2.755-1.126-4.759-2.19-4.759-4.725,0-3.1,2.505-5.509,6.481-5.509a10.709,10.709,0,0,1,5.322,1.564,1.646,1.646,0,0,1-.722,3.1,2,2,0,0,1-1.032-.377,6.654,6.654,0,0,0-3.852-1.313c-1.627,0-2.533.813-2.533,1.876,0,.846.748,1.378,2.628,2.16,2.5,1.063,4.538,2.222,4.538,4.634,0,3.411-2.817,5.6-6.606,5.6a10.732,10.732,0,0,1-6.381-2.162,1.639,1.639,0,0,1,.846-2.972,1.812,1.812,0,0,1,1.095.406,7.311,7.311,0,0,0,4.757,1.752c1.473,0,2.629-.75,2.629-1.97" transform="translate(-373.674 -688.638)" fill="#47545d"/>
    <path id="Path_8" data-name="Path 8" d="M467.8,722.96c-4.259,0-7.573-2.849-7.573-7.357a9.948,9.948,0,0,1,9.764-9.891,7.2,7.2,0,0,1,5.729,2.411,2.179,2.179,0,0,1,.655,1.5,1.756,1.756,0,0,1-1.784,1.753,1.512,1.512,0,0,1-1.313-.593,4.171,4.171,0,0,0-3.6-1.786c-2.971,0-5.662,3.067-5.662,6.573a3.876,3.876,0,0,0,3.91,4.132,5.525,5.525,0,0,0,3.475-1.254,2.1,2.1,0,0,1,1.158-.439,1.553,1.553,0,0,1,1.536,1.6,1.619,1.619,0,0,1-.6,1.282,8.489,8.489,0,0,1-5.7,2.068" transform="translate(-370.931 -688.638)" fill="#47545d"/>
    <path id="Path_9" data-name="Path 9" d="M483,720.964l.154-.594a7.158,7.158,0,0,1-5.445,2.535c-2.819,0-4.976-1.784-4.976-4.508,0-3.787,3.1-5.977,7.228-5.977a17.81,17.81,0,0,1,5.134.813l.094-.279a6.149,6.149,0,0,0,.188-1.378c0-1.532-1.066-2.505-3.661-2.505a12.338,12.338,0,0,0-3.256.471,2.581,2.581,0,0,1-.657.094,1.471,1.471,0,0,1-1.5-1.532,1.571,1.571,0,0,1,1.188-1.5,15.848,15.848,0,0,1,4.979-.784c4.317,0,6.6,1.878,6.6,5.1a10.628,10.628,0,0,1-.346,2.411l-2,7.512a2.267,2.267,0,0,1-2.129,1.878,1.417,1.417,0,0,1-1.6-1.753m1.312-4.724.22-.752a13.417,13.417,0,0,0-4-.627c-2.349,0-4.007,1.221-4.007,3.1,0,1.315,1.033,2.221,2.693,2.221a5.517,5.517,0,0,0,5.1-3.942" transform="translate(-368.24 -688.616)" fill="#47545d"/>
    <path id="Path_10" data-name="Path 10" d="M490.071,721.947a2.261,2.261,0,0,1-2.128,1.878c-1.251,0-1.942-.908-1.533-2.441l5.07-18.841a2.215,2.215,0,0,1,2.13-1.88c1.252,0,1.908.908,1.5,2.442Z" transform="translate(-365.324 -689.724)" fill="#47545d"/>
    <path id="Path_11" data-name="Path 11" d="M503.749,718.859a2.665,2.665,0,0,1,1.19-.377,1.406,1.406,0,0,1,1.44,1.471,1.521,1.521,0,0,1-.721,1.283,9.312,9.312,0,0,1-5.6,1.721c-4.6,0-7.511-2.783-7.511-7.228,0-4.882,3.977-10.017,9.736-10.017,4.255,0,6.6,2.818,6.6,6.418a10.944,10.944,0,0,1-.188,1.815,1.842,1.842,0,0,1-1.878,1.69H496.176v.312c.092,2.347,1.566,3.911,4.255,3.911a5.872,5.872,0,0,0,3.318-1m1.378-5.728a3.8,3.8,0,0,0,.157-1.158,2.975,2.975,0,0,0-3.288-3.16,5.884,5.884,0,0,0-5.443,4.318Z" transform="translate(-363.98 -688.638)" fill="#47545d"/>
    <path id="Path_12" data-name="Path 12" d="M534.344,691.66A22.456,22.456,0,0,0,512.1,717.352l6.931-6.93a3.827,3.827,0,0,1,5.384-.007l5.763,5.791,7.31-7.315-2.8-1.038a1.061,1.061,0,0,1,.078-2.013l13.729-3.968a1.069,1.069,0,0,1,1.029.256,1.144,1.144,0,0,1,.292,1.064l-3.985,13.736a1.047,1.047,0,0,1-.979.776h0a1.079,1.079,0,0,1-1.029-.7l-1.043-2.846-9.953,9.978a3.81,3.81,0,0,1-5.356,0l-5.762-5.788-6.891,6.911a22.472,22.472,0,1,0,19.52-33.6" transform="translate(-359.824 -691.66)" fill="#3db6e5"/>
    <path id="Path_13" data-name="Path 13" d="M544.731,724.872h-.688v1.956h-.266v-1.956h-.689v-.2h1.643Zm2.617,1.956h-.267v-1.936h-.01l-.746,1.936h-.171l-.746-1.936H545.4v1.936h-.267v-2.159h.493l.616,1.594h.01l.605-1.594h.492Z" transform="translate(-353.11 -684.561)" fill="#3db6e5"/>
  </g>
</svg>
